<mxfile modified="2021-09-11T10:54:15.513Z" host="app.diagrams.net" agent="5.0 (Windows NT 10.0; Win64; x64) AppleWebKit/537.36 (KHTML, like Gecko) Chrome/80.0.3987.122 Safari/537.36" etag="FngwHfVgvb3WxnCciAaa" version="15.1.4" type="github">
  <diagram id="Ht1M8jgEwFfnCIfOTk4-" name="Page-1">
    <mxGraphModel dx="2993" dy="1825" grid="1" gridSize="10" guides="1" tooltips="1" connect="1" arrows="1" fold="1" page="1" pageScale="1" pageWidth="1169" pageHeight="827" math="0" shadow="0">
      <root>
        <mxCell id="0" />
        <mxCell id="1" parent="0" />
        <mxCell id="xJqZdxxEa5ggQNcX2odJ-21" style="edgeStyle=orthogonalEdgeStyle;rounded=0;orthogonalLoop=1;jettySize=auto;html=1;exitX=1;exitY=0.5;exitDx=0;exitDy=0;entryX=0;entryY=0.5;entryDx=0;entryDy=0;" edge="1" parent="1" source="xJqZdxxEa5ggQNcX2odJ-1" target="xJqZdxxEa5ggQNcX2odJ-2">
          <mxGeometry relative="1" as="geometry" />
        </mxCell>
        <mxCell id="xJqZdxxEa5ggQNcX2odJ-1" value="1.读" style="rounded=0;whiteSpace=wrap;html=1;" vertex="1" parent="1">
          <mxGeometry x="40" y="190" width="80" height="40" as="geometry" />
        </mxCell>
        <mxCell id="xJqZdxxEa5ggQNcX2odJ-2" value="2.分&lt;br&gt;自定义" style="rounded=0;whiteSpace=wrap;html=1;" vertex="1" parent="1">
          <mxGeometry x="250" y="180" width="120" height="60" as="geometry" />
        </mxCell>
        <mxCell id="xJqZdxxEa5ggQNcX2odJ-3" value="3.分区" style="rounded=0;whiteSpace=wrap;html=1;" vertex="1" parent="1">
          <mxGeometry x="480" y="180" width="120" height="60" as="geometry" />
        </mxCell>
        <mxCell id="xJqZdxxEa5ggQNcX2odJ-4" value="4.排序" style="rounded=0;whiteSpace=wrap;html=1;" vertex="1" parent="1">
          <mxGeometry x="710" y="180" width="120" height="60" as="geometry" />
        </mxCell>
        <mxCell id="xJqZdxxEa5ggQNcX2odJ-5" value="5.规约" style="rounded=0;whiteSpace=wrap;html=1;" vertex="1" parent="1">
          <mxGeometry x="920" y="180" width="120" height="60" as="geometry" />
        </mxCell>
        <mxCell id="xJqZdxxEa5ggQNcX2odJ-6" value="6.分组" style="rounded=0;whiteSpace=wrap;html=1;" vertex="1" parent="1">
          <mxGeometry x="1130" y="180" width="120" height="60" as="geometry" />
        </mxCell>
        <mxCell id="xJqZdxxEa5ggQNcX2odJ-7" value="7.reduce自定义&lt;br&gt;合" style="rounded=0;whiteSpace=wrap;html=1;" vertex="1" parent="1">
          <mxGeometry x="1380" y="180" width="120" height="60" as="geometry" />
        </mxCell>
        <mxCell id="xJqZdxxEa5ggQNcX2odJ-8" value="8.写" style="rounded=0;whiteSpace=wrap;html=1;" vertex="1" parent="1">
          <mxGeometry x="1610" y="180" width="120" height="60" as="geometry" />
        </mxCell>
        <mxCell id="xJqZdxxEa5ggQNcX2odJ-10" value="&lt;h1&gt;单词计数案例原理&lt;/h1&gt;&lt;p&gt;这是文本内容&lt;/p&gt;" style="text;html=1;strokeColor=none;fillColor=none;spacing=5;spacingTop=-20;whiteSpace=wrap;overflow=hidden;rounded=0;" vertex="1" parent="1">
          <mxGeometry x="-460" y="-20" width="300" height="120" as="geometry" />
        </mxCell>
        <mxCell id="xJqZdxxEa5ggQNcX2odJ-11" value="a.txt&lt;br&gt;100M" style="rounded=0;whiteSpace=wrap;html=1;" vertex="1" parent="1">
          <mxGeometry x="-360" y="140" width="180" height="70" as="geometry" />
        </mxCell>
        <mxCell id="xJqZdxxEa5ggQNcX2odJ-12" value="block1&lt;br&gt;128M" style="rounded=0;whiteSpace=wrap;html=1;" vertex="1" parent="1">
          <mxGeometry x="-360" y="210" width="60" height="50" as="geometry" />
        </mxCell>
        <mxCell id="xJqZdxxEa5ggQNcX2odJ-13" value="block2&lt;br&gt;128M" style="rounded=0;whiteSpace=wrap;html=1;" vertex="1" parent="1">
          <mxGeometry x="-300" y="210" width="60" height="50" as="geometry" />
        </mxCell>
        <object label="" id="xJqZdxxEa5ggQNcX2odJ-14">
          <mxCell style="rounded=0;whiteSpace=wrap;html=1;" vertex="1" parent="1">
            <mxGeometry x="-240" y="210" width="60" height="50" as="geometry" />
          </mxCell>
        </object>
        <mxCell id="xJqZdxxEa5ggQNcX2odJ-15" value="block3&lt;br&gt;128M" style="text;html=1;strokeColor=none;fillColor=none;align=center;verticalAlign=middle;whiteSpace=wrap;rounded=0;" vertex="1" parent="1">
          <mxGeometry x="-230" y="225" width="40" height="20" as="geometry" />
        </mxCell>
        <mxCell id="xJqZdxxEa5ggQNcX2odJ-20" style="edgeStyle=orthogonalEdgeStyle;rounded=0;orthogonalLoop=1;jettySize=auto;html=1;exitX=0.5;exitY=1;exitDx=0;exitDy=0;entryX=0.25;entryY=1;entryDx=0;entryDy=0;" edge="1" parent="1" source="xJqZdxxEa5ggQNcX2odJ-18" target="xJqZdxxEa5ggQNcX2odJ-1">
          <mxGeometry relative="1" as="geometry" />
        </mxCell>
        <mxCell id="xJqZdxxEa5ggQNcX2odJ-18" value="切片1" style="rounded=1;whiteSpace=wrap;html=1;" vertex="1" parent="1">
          <mxGeometry x="-360" y="260" width="100" height="60" as="geometry" />
        </mxCell>
        <mxCell id="xJqZdxxEa5ggQNcX2odJ-19" value="切片2" style="rounded=1;whiteSpace=wrap;html=1;" vertex="1" parent="1">
          <mxGeometry x="-260" y="260" width="80" height="60" as="geometry" />
        </mxCell>
      </root>
    </mxGraphModel>
  </diagram>
</mxfile>
